<svg 
 xmlns="http://www.w3.org/2000/svg"
 xmlns:xlink="http://www.w3.org/1999/xlink"
 width="442px" height="71px">
<path fill-rule="evenodd"  fill="rgb(0, 80, 157)"
 d="M404.146,34.592 L425.608,34.592 L419.092,46.209 L404.146,46.209 L404.146,55.488 L426.813,55.488 L441.545,55.488 L426.813,70.929 L404.146,71.000 L402.801,71.000 L402.801,15.700 L402.092,15.699 L402.092,70.362 L400.817,68.945 L400.817,15.697 L400.038,15.696 L400.038,68.025 L398.692,66.608 L398.692,15.694 L397.984,15.693 L397.984,65.829 L396.709,64.341 L396.709,15.691 L396.001,15.690 L396.001,64.341 L394.655,62.854 L394.655,15.689 L393.947,15.688 L393.947,61.367 L392.672,59.879 L392.672,15.686 L391.893,15.685 L391.893,59.029 L390.547,57.612 L390.547,15.683 L389.768,15.682 L389.768,56.904 L388.422,55.488 L388.422,15.680 L403.297,0.168 L425.467,0.168 L441.545,15.751 L404.146,15.701 L404.146,34.592 ZM351.517,6.118 L348.330,15.539 L347.692,13.626 L351.021,4.064 L351.517,6.118 ZM355.664,23.157 L356.121,25.101 L353.926,31.405 L353.852,31.205 L353.231,29.451 L355.553,22.698 L353.953,16.085 L354.350,17.876 L351.801,25.313 L351.092,23.259 L353.775,15.352 L353.497,14.203 L350.679,22.234 L349.974,20.240 L352.863,11.714 L353.399,13.800 L350.667,2.507 L347.197,12.351 L346.488,10.368 L350.101,0.168 L367.029,0.168 L384.383,71.000 L367.242,71.000 L355.664,23.157 ZM350.667,22.268 L350.679,22.234 L352.335,26.917 L352.792,28.288 L352.806,28.249 L353.231,29.451 L353.217,29.492 L353.852,31.205 L354.495,33.025 L354.492,33.034 L354.628,33.400 L355.625,36.221 L338.980,36.221 L334.154,22.944 L334.164,22.905 L333.384,20.780 L333.378,20.807 L332.235,17.665 L332.109,17.309 L332.108,17.314 L331.678,16.131 L331.684,16.105 L331.427,15.440 L328.478,7.326 L328.426,7.181 L328.426,7.183 L327.996,5.999 L328.001,5.976 L327.668,5.099 L326.653,2.304 L326.655,2.293 L325.876,0.168 L342.876,0.168 L349.447,18.750 L349.463,18.797 L349.463,18.796 L349.974,20.240 L349.959,20.284 L350.667,22.268 ZM354.634,19.009 L355.200,21.418 L352.806,28.249 L352.335,26.917 L352.155,26.376 L354.634,19.009 ZM356.475,26.588 L357.042,28.926 L355.200,34.946 L354.628,33.400 L354.495,33.025 L356.475,26.588 ZM322.335,71.000 L320.918,71.000 L333.378,20.807 L334.154,22.944 L322.335,71.000 ZM332.889,19.505 L320.139,71.000 L318.793,71.000 L332.108,17.314 L332.235,17.665 L332.889,19.505 ZM318.085,71.000 L316.739,71.000 L330.835,13.910 L331.427,15.440 L331.678,16.131 L318.085,71.000 ZM329.205,9.376 L313.977,71.000 L312.702,71.000 L328.426,7.183 L328.478,7.326 L329.205,9.376 ZM311.923,71.000 L310.506,71.000 L327.222,3.922 L327.668,5.099 L327.996,5.999 L311.923,71.000 ZM309.727,71.000 L308.381,71.000 L325.876,0.168 L326.653,2.304 L309.727,71.000 ZM348.755,16.743 L351.871,7.535 L352.438,10.014 L349.463,18.796 L349.447,18.750 L348.755,16.743 ZM265.669,71.000 L250.440,55.700 L250.440,16.035 L251.644,16.036 L251.644,55.698 L252.423,55.697 L252.423,16.037 L253.769,16.039 L253.769,55.696 L254.477,55.695 L254.477,16.040 L255.823,16.042 L255.823,55.693 L256.531,55.692 L256.531,16.043 L257.806,16.044 L257.806,55.690 L258.515,55.689 L258.515,16.045 L259.860,16.047 L259.860,55.687 L260.569,55.686 L260.569,16.048 L261.844,16.050 L261.844,55.685 L262.623,55.684 L262.623,16.051 L263.898,16.053 L263.898,55.682 L264.606,55.681 L264.606,16.053 L265.952,16.055 L265.952,55.679 L303.351,55.629 L287.555,71.000 L265.669,71.000 ZM293.364,55.629 L292.089,55.629 L292.089,16.105 L293.364,16.105 L293.364,55.629 ZM301.509,55.629 L300.163,55.629 L300.163,16.105 L301.509,16.105 L301.509,55.629 ZM302.217,16.105 L303.351,16.105 L303.351,55.629 L302.217,55.629 L302.217,16.105 ZM299.455,16.035 L298.109,16.035 L298.109,16.098 L297.401,16.097 L297.401,16.035 L296.126,16.035 L296.126,16.096 L295.418,16.095 L295.418,16.035 L294.072,16.035 L294.072,16.093 L291.309,16.089 L291.309,16.035 L290.034,16.035 L290.034,16.088 L289.185,16.086 L289.185,16.035 L287.910,16.035 L287.910,16.085 L265.952,16.055 L265.952,16.035 L264.606,16.035 L264.606,16.053 L263.898,16.053 L263.898,16.035 L262.623,16.035 L262.623,16.051 L261.844,16.050 L261.844,16.035 L260.569,16.035 L260.569,16.048 L259.860,16.047 L259.860,16.035 L258.515,16.035 L258.515,16.045 L257.806,16.044 L257.806,16.035 L256.531,16.035 L256.531,16.043 L255.823,16.042 L255.823,16.035 L254.477,16.035 L254.477,16.040 L253.769,16.039 L253.769,16.035 L252.423,16.035 L252.423,16.037 L251.644,16.036 L251.644,16.035 L250.440,16.035 L265.385,0.168 L287.272,0.168 L303.351,16.105 L299.455,16.100 L299.455,16.035 ZM299.455,55.629 L298.109,55.629 L298.109,16.098 L299.455,16.100 L299.455,55.629 ZM297.401,55.629 L296.126,55.629 L296.126,16.096 L297.401,16.097 L297.401,55.629 ZM295.418,55.629 L294.072,55.629 L294.072,16.093 L295.418,16.095 L295.418,55.629 ZM291.309,55.629 L290.034,55.629 L290.034,16.088 L291.309,16.089 L291.309,55.629 ZM289.185,55.629 L287.910,55.629 L287.910,16.085 L289.185,16.086 L289.185,55.629 ZM243.497,0.168 L244.701,0.168 L244.701,71.000 L243.497,71.000 L243.497,0.168 ZM241.514,0.168 L242.860,0.168 L242.860,71.000 L241.514,71.000 L241.514,0.168 ZM239.460,0.168 L240.806,0.168 L240.806,71.000 L239.460,71.000 L239.460,0.168 ZM237.406,0.168 L238.751,0.168 L238.751,71.000 L237.406,71.000 L237.406,0.168 ZM235.422,0.168 L236.697,0.168 L236.697,71.000 L235.422,71.000 L235.422,0.168 ZM233.368,0.168 L234.714,0.168 L234.714,71.000 L233.368,71.000 L233.368,0.168 ZM231.243,0.168 L232.589,0.168 L232.589,71.000 L231.243,71.000 L231.243,0.168 ZM229.260,46.067 L207.090,46.067 L207.090,71.000 L205.744,71.000 L205.744,0.168 L207.090,0.168 L207.090,30.342 L229.260,30.342 L229.260,0.168 L230.535,0.168 L230.535,71.000 L229.260,71.000 L229.260,46.067 ZM203.761,0.168 L205.036,0.168 L205.036,71.000 L203.761,71.000 L203.761,0.168 ZM201.636,0.168 L202.982,0.168 L202.982,71.000 L201.636,71.000 L201.636,0.168 ZM199.653,0.168 L200.928,0.168 L200.928,71.000 L199.653,71.000 L199.653,0.168 ZM197.598,0.168 L198.944,0.168 L198.944,71.000 L197.598,71.000 L197.598,0.168 ZM195.544,0.168 L196.890,0.168 L196.890,71.000 L195.544,71.000 L195.544,0.168 ZM193.490,0.168 L194.765,0.168 L194.765,71.000 L193.490,71.000 L193.490,0.168 ZM191.436,0.168 L192.782,0.168 L192.782,71.000 L191.436,71.000 L191.436,0.168 ZM132.360,55.346 L122.515,71.000 L100.486,71.000 L100.486,55.346 L116.494,55.346 L116.494,15.751 L128.040,0.168 L153.752,0.168 L153.752,15.751 L132.360,15.751 L132.360,55.346 ZM118.690,15.751 L117.840,15.751 L117.840,55.346 L118.690,55.346 L118.690,15.751 ZM120.744,15.751 L119.965,15.751 L119.965,55.346 L120.744,55.346 L120.744,15.751 ZM122.798,15.751 L122.090,15.751 L122.090,55.346 L122.798,55.346 L122.798,15.751 ZM124.782,15.751 L124.073,15.751 L124.073,55.346 L124.782,55.346 L124.782,15.751 ZM126.836,15.751 L126.127,15.751 L126.127,55.346 L126.836,55.346 L126.836,15.751 ZM128.890,15.751 L128.181,15.751 L128.181,55.346 L128.890,55.346 L128.890,15.751 ZM131.015,15.751 L130.236,15.751 L130.236,55.346 L131.015,55.346 L131.015,15.751 ZM93.474,0.168 L94.749,0.168 L94.749,71.000 L93.474,71.000 L93.474,0.168 ZM91.420,0.168 L92.766,0.168 L92.766,71.000 L91.420,71.000 L91.420,0.168 ZM89.366,0.168 L90.712,0.168 L90.712,71.000 L89.366,71.000 L89.366,0.168 ZM87.383,0.168 L88.729,0.168 L88.729,71.000 L87.383,71.000 L87.383,0.168 ZM85.400,0.168 L86.675,0.168 L86.675,71.000 L85.400,71.000 L85.400,0.168 ZM83.416,0.168 L84.691,0.168 L84.691,71.000 L83.416,71.000 L83.416,0.168 ZM81.362,0.168 L82.637,0.168 L82.637,71.000 L81.362,71.000 L81.362,0.168 ZM79.237,0.168 L80.512,0.168 L80.512,71.000 L79.237,71.000 L79.237,0.168 ZM72.932,71.000 L64.931,48.979 L64.379,49.728 L72.223,71.000 L70.807,71.000 L63.511,50.954 L63.842,50.459 L62.966,51.649 L70.169,71.000 L68.682,71.000 L61.811,52.158 L61.103,52.158 L67.974,71.000 L66.628,71.000 L59.686,52.158 L58.978,52.158 L65.849,71.000 L64.361,71.000 L57.632,52.158 L56.782,52.158 L63.724,71.000 L62.236,71.000 L55.436,52.158 L54.586,52.158 L61.457,71.000 L59.899,71.000 L53.241,52.158 L52.461,52.158 L59.261,71.000 L57.845,71.000 L51.116,52.158 L37.374,52.158 L37.374,71.000 L36.099,71.000 L36.099,16.672 L35.391,16.672 L35.391,71.000 L34.116,71.000 L34.116,16.672 L33.337,16.672 L33.337,71.000 L32.062,71.000 L32.062,16.672 L31.354,16.672 L31.354,71.000 L30.079,71.000 L30.079,16.672 L29.441,16.672 L29.441,71.000 L28.096,71.000 L28.096,16.672 L27.458,16.672 L27.458,71.000 L26.112,71.000 L26.112,16.672 L25.404,16.672 L25.404,71.000 L24.129,71.000 L24.129,16.672 L23.279,16.672 L23.279,71.000 L22.004,71.000 L22.004,16.672 L36.737,0.168 L58.128,0.168 L73.853,16.672 L73.853,36.788 L72.578,36.788 L72.578,16.672 L71.869,16.672 L71.869,36.859 L73.853,36.859 L65.857,47.720 L74.278,71.000 L72.932,71.000 ZM58.482,16.672 L37.374,16.672 L37.374,36.859 L58.482,36.859 L58.482,16.672 ZM60.536,16.672 L59.757,16.672 L59.757,36.859 L60.536,36.859 L60.536,16.672 ZM62.590,16.672 L61.811,16.672 L61.811,36.859 L62.590,36.859 L62.590,16.672 ZM64.574,16.672 L63.865,16.672 L63.865,36.859 L64.574,36.859 L64.574,16.672 ZM69.815,36.859 L70.594,36.859 L70.594,16.672 L69.815,16.672 L69.815,36.859 ZM67.832,36.859 L68.540,36.859 L68.540,16.672 L67.832,16.672 L67.832,36.859 ZM66.557,36.859 L66.557,16.672 L65.849,16.672 L65.849,36.859 L66.557,36.859 ZM14.992,0.168 L16.267,0.168 L16.267,71.000 L14.992,71.000 L14.992,0.168 ZM12.938,0.168 L14.284,0.168 L14.284,71.000 L12.938,71.000 L12.938,0.168 ZM10.884,0.168 L12.230,0.168 L12.230,71.000 L10.884,71.000 L10.884,0.168 ZM8.900,0.168 L10.246,0.168 L10.246,71.000 L8.900,71.000 L8.900,0.168 ZM6.917,0.168 L8.192,0.168 L8.192,71.000 L6.917,71.000 L6.917,0.168 ZM4.934,0.168 L6.209,0.168 L6.209,71.000 L4.934,71.000 L4.934,0.168 ZM2.880,0.168 L4.155,0.168 L4.155,71.000 L2.880,71.000 L2.880,0.168 ZM0.755,0.168 L2.030,0.168 L2.030,71.000 L0.755,71.000 L0.755,0.168 ZM330.410,12.705 L316.031,71.000 L314.756,71.000 L329.630,10.580 L330.410,12.705 ZM335.297,26.093 L324.247,71.000 L322.972,71.000 L334.518,24.038 L335.297,26.093 Z"/>
</svg>